<svg version="1.2" xmlns="http://www.w3.org/2000/svg" viewBox="0 0 3000 1900" width="2997" height="1898"><path fill="#ededed" d="m254.3 743.5h-68.9v-68.9h68.9z"/><path fill="#ededed" d="m323.2 743.5h-68.9v-68.9h68.9z"/><path fill="#ededed" d="m254.3 812.3h-68.9v-68.8h68.9z"/><path fill="#ededed" d="m254.3 950.1h-68.9v-68.9h68.9z"/><path fill="#ef4b4b" d="m254.3 674.6h-68.9v-68.8h68.9z"/><path fill="#ef4b4b" d="m323.2 674.6h-68.9v-68.8h68.9z"/><path fill="#ef4b4b" d="m392 674.6h-68.8v-68.8h68.8z"/><path fill="#ef4b4b" d="m392 743.5h-68.8v-68.9h68.8z"/><path fill="#ef4b4b" d="m323.2 812.3h-68.9v-68.8h68.9z"/><path fill="#ef4b4b" d="m392 812.3h-68.8v-68.8h68.8z"/><path fill="#ef4b4b" d="m254.3 881.2h-68.9v-68.9h68.9z"/><path fill="#ef4b4b" d="m323.2 881.2h-68.9v-68.9h68.9z"/><path fill="#ef4b4b" d="m392 881.2h-68.8v-68.9h68.8z"/><path fill="#ef4b4b" d="m185.4 743.5h-68.8v-68.9h68.8z"/><path fill="#ef4b4b" d="m185.4 812.3h-68.8v-68.8h68.8z"/><path fill="#ef4b4b" d="m185.4 881.2h-68.8v-68.9h68.8z"/><path fill="#ef4b4b" d="m185.4 950.1h-68.8v-68.9h68.8z"/><path fill="#ef4b4b" d="m323.2 950.1h-68.9v-68.9h68.9z"/><path fill="#ef4b4b" d="m392 950.1h-68.8v-68.9h68.8z"/><path fill="#ef4b4b" d="m254.3 1018.9h-68.9v-68.8h68.9z"/><path fill="#ef4b4b" d="m323.2 1018.9h-68.9v-68.8h68.9z"/><path fill="#ef4b4b" d="m392 1018.9h-68.8v-68.8h68.8z"/><path fill="#ef4b4b" d="m323.2 1087.8h-68.9v-68.9h68.9z"/><path fill="#ef4b4b" d="m392 1087.8h-68.8v-68.9h68.8z"/><path fill="#ef4b4b" d="m460.9 743.5h-68.9v-68.9h68.9z"/><path fill="#ef4b4b" d="m460.9 812.3h-68.9v-68.8h68.9z"/><path fill="#ef4b4b" d="m460.9 881.2h-68.9v-68.9h68.9z"/><path fill="#ef4b4b" d="m460.9 950.1h-68.9v-68.9h68.9z"/><path fill="#ef4b4b" d="m460.9 1018.9h-68.9v-68.8h68.9z"/><path fill="#ef4b4b" d="m460.9 1087.8h-68.9v-68.9h68.9z"/><path fill="#ef4b4b" d="m392 1156.6h-68.8v-68.8h68.8z"/><path fill="#ef4b4b" d="m460.9 1156.6h-68.9v-68.8h68.9z"/><path fill="#ef4b4b" d="m529.7 812.3h-68.8v-68.8h68.8z"/><path fill="#ef4b4b" d="m529.7 881.2h-68.8v-68.9h68.8z"/><path fill="#ef4b4b" d="m529.7 950.1h-68.8v-68.9h68.8z"/><path fill="#ef4b4b" d="m529.7 1018.9h-68.8v-68.8h68.8z"/><path fill="#ef4b4b" d="m529.7 1087.8h-68.8v-68.9h68.8z"/><path fill="#ef4b4b" d="m529.7 1156.6h-68.8v-68.8h68.8z"/><path fill="#ef4b4b" d="m460.9 1225.5h-68.9v-68.9h68.9z"/><path fill="#ef4b4b" d="m667.4 674.6h68.9v-68.8h-68.9z"/><path fill="#ef4b4b" d="m598.6 674.6h68.8v-68.8h-68.8z"/><path fill="#ef4b4b" d="m736.3 743.5h68.8v-68.9h-68.8z"/><path fill="#ef4b4b" d="m667.4 743.5h68.9v-68.9h-68.9z"/><path fill="#ef4b4b" d="m598.6 743.5h68.8v-68.9h-68.8z"/><path fill="#ef4b4b" d="m736.3 812.3h68.8v-68.8h-68.8z"/><path fill="#ef4b4b" d="m667.4 812.3h68.9v-68.8h-68.9z"/><path fill="#ef4b4b" d="m598.6 812.3h68.8v-68.8h-68.8z"/><path fill="#ef4b4b" d="m736.3 881.2h68.8v-68.9h-68.8z"/><path fill="#ef4b4b" d="m667.4 881.2h68.9v-68.9h-68.9z"/><path fill="#ef4b4b" d="m598.6 881.2h68.8v-68.9h-68.8z"/><path fill="#ef4b4b" d="m736.3 950.1h68.8v-68.9h-68.8z"/><path fill="#ef4b4b" d="m667.4 950.1h68.9v-68.9h-68.9z"/><path fill="#ef4b4b" d="m598.6 950.1h68.8v-68.9h-68.8z"/><path fill="#ef4b4b" d="m667.4 1018.9h68.9v-68.8h-68.9z"/><path fill="#ef4b4b" d="m598.6 1018.9h68.8v-68.8h-68.8z"/><path fill="#ef4b4b" d="m598.6 1087.8h68.8v-68.9h-68.8z"/><path fill="#ef4b4b" d="m529.7 743.5h68.9v-68.9h-68.9z"/><path fill="#ef4b4b" d="m529.7 812.3h68.9v-68.8h-68.9z"/><path fill="#ef4b4b" d="m529.7 881.2h68.9v-68.9h-68.9z"/><path fill="#ef4b4b" d="m529.7 950.1h68.9v-68.9h-68.9z"/><path fill="#ef4b4b" d="m529.7 1018.9h68.9v-68.8h-68.9z"/><path fill="#ef4b4b" d="m529.7 1087.8h68.9v-68.9h-68.9z"/><path fill="#ef4b4b" d="m529.7 1156.6h68.9v-68.8h-68.9z"/><path fill="#ef4b4b" d="m529.7 1225.5h-68.8v-68.9h68.8z"/><path fill="#972f2f" d="m736.3 674.6h68.8v-68.8h-68.8z"/><path fill="#972f2f" d="m805.1 743.5h68.9v-68.9h-68.9z"/><path fill="#972f2f" d="m805.1 812.3h68.9v-68.8h-68.9z"/><path fill="#972f2f" d="m805.1 881.2h68.9v-68.9h-68.9z"/><path fill="#972f2f" d="m805.1 950.1h68.9v-68.9h-68.9z"/><path fill="#972f2f" d="m736.3 1018.9h68.8v-68.8h-68.8z"/><path fill="#972f2f" d="m667.4 1087.8h68.9v-68.9h-68.9z"/><path fill="#972f2f" d="m598.6 1156.6h68.8v-68.8h-68.8z"/><path fill="#972f2f" d="m529.7 1225.5h68.9v-68.9h-68.9z"/><path fill="#972f2f" d="m529.7 1294.3h-68.8v-68.8h68.8z"/><path fill="#231e23" d="m254.3 605.8h-68.9v-68.9h68.9z"/><path fill="#231e23" d="m323.2 605.8h-68.9v-68.9h68.9z"/><path fill="#231e23" d="m392 605.8h-68.8v-68.9h68.8z"/><path fill="#231e23" d="m460.9 674.6h-68.9v-68.8h68.9z"/><path fill="#231e23" d="m529.7 743.5h-68.8v-68.9h68.8z"/><path fill="#231e23" d="m598.6 674.6h-68.9v-68.8h68.9z"/><path fill="#231e23" d="m667.4 605.8h-68.8v-68.9h68.8z"/><path fill="#231e23" d="m736.3 605.8h-68.9v-68.9h68.9z"/><path fill="#231e23" d="m805.1 605.8h-68.8v-68.9h68.8z"/><path fill="#231e23" d="m874 674.6h-68.9v-68.8h68.9z"/><path fill="#231e23" d="m942.8 743.5h-68.8v-68.9h68.8z"/><path fill="#231e23" d="m942.8 812.3h-68.8v-68.8h68.8z"/><path fill="#231e23" d="m942.8 881.2h-68.8v-68.9h68.8z"/><path fill="#231e23" d="m942.8 950.1h-68.8v-68.9h68.8z"/><path fill="#231e23" d="m874 1018.9h-68.9v-68.8h68.9z"/><path fill="#231e23" d="m805.1 1087.8h-68.8v-68.9h68.8z"/><path fill="#231e23" d="m736.3 1156.6h-68.9v-68.8h68.9z"/><path fill="#231e23" d="m667.4 1225.5h-68.8v-68.9h68.8z"/><path fill="#231e23" d="m598.6 1294.3h-68.9v-68.8h68.9z"/><path fill="#231e23" d="m529.7 1363.2h-68.8v-68.9h68.8z"/><path fill="#231e23" d="m47.7 743.5h68.9v-68.9h-68.9z"/><path fill="#231e23" d="m47.7 812.3h68.9v-68.8h-68.9z"/><path fill="#231e23" d="m47.7 881.2h68.9v-68.9h-68.9z"/><path fill="#231e23" d="m47.7 950.1h68.9v-68.9h-68.9z"/><path fill="#231e23" d="m116.6 1018.9h68.8v-68.8h-68.8z"/><path fill="#231e23" d="m185.4 1087.8h68.9v-68.9h-68.9z"/><path fill="#231e23" d="m254.3 1156.6h68.9v-68.8h-68.9z"/><path fill="#231e23" d="m323.2 1225.5h68.8v-68.9h-68.8z"/><path fill="#231e23" d="m392 1294.3h68.9v-68.8h-68.9z"/><path fill="#231e23" d="m185.4 674.6h-68.8v-68.8h68.8z"/><path fill="#ededed" d="m1259.2 743.5h-68.9v-68.9h68.9z"/><path fill="#ededed" d="m1328 743.5h-68.8v-68.9h68.8z"/><path fill="#ededed" d="m1259.2 812.3h-68.9v-68.8h68.9z"/><path fill="#ededed" d="m1259.2 950.1h-68.9v-68.9h68.9z"/><path fill="#ef4b4b" d="m1259.2 674.6h-68.9v-68.8h68.9z"/><path fill="#ef4b4b" d="m1328 674.6h-68.8v-68.8h68.8z"/><path fill="#ef4b4b" d="m1396.9 674.6h-68.9v-68.8h68.9z"/><path fill="#ef4b4b" d="m1396.9 743.5h-68.9v-68.9h68.9z"/><path fill="#ef4b4b" d="m1328 812.3h-68.8v-68.8h68.8z"/><path fill="#ef4b4b" d="m1396.9 812.3h-68.9v-68.8h68.9z"/><path fill="#ef4b4b" d="m1259.2 881.2h-68.9v-68.9h68.9z"/><path fill="#ef4b4b" d="m1328 881.2h-68.8v-68.9h68.8z"/><path fill="#ef4b4b" d="m1396.9 881.2h-68.9v-68.9h68.9z"/><path fill="#ef4b4b" d="m1190.3 743.5h-68.8v-68.9h68.8z"/><path fill="#ef4b4b" d="m1190.3 812.3h-68.8v-68.8h68.8z"/><path fill="#ef4b4b" d="m1190.3 881.2h-68.8v-68.9h68.8z"/><path fill="#ef4b4b" d="m1190.3 950.1h-68.8v-68.9h68.8z"/><path fill="#ef4b4b" d="m1328 950.1h-68.8v-68.9h68.8z"/><path fill="#ef4b4b" d="m1396.9 950.1h-68.9v-68.9h68.9z"/><path fill="#ef4b4b" d="m1259.2 1018.9h-68.9v-68.8h68.9z"/><path fill="#ef4b4b" d="m1328 1018.9h-68.8v-68.8h68.8z"/><path fill="#ef4b4b" d="m1396.9 1018.9h-68.9v-68.8h68.9z"/><path fill="#ef4b4b" d="m1328 1087.8h-68.8v-68.9h68.8z"/><path fill="#ef4b4b" d="m1396.9 1087.8h-68.9v-68.9h68.9z"/><path fill="#ef4b4b" d="m1465.8 743.5h-68.9v-68.9h68.9z"/><path fill="#ef4b4b" d="m1465.8 812.3h-68.9v-68.8h68.9z"/><path fill="#ef4b4b" d="m1465.8 881.2h-68.9v-68.9h68.9z"/><path fill="#ef4b4b" d="m1465.8 950.1h-68.9v-68.9h68.9z"/><path fill="#ef4b4b" d="m1465.8 1018.9h-68.9v-68.8h68.9z"/><path fill="#ef4b4b" d="m1465.8 1087.8h-68.9v-68.9h68.9z"/><path fill="#ef4b4b" d="m1396.9 1156.6h-68.9v-68.8h68.9z"/><path fill="#ef4b4b" d="m1465.8 1156.6h-68.9v-68.8h68.9z"/><path fill="#ef4b4b" d="m1534.6 812.3h-68.8v-68.8h68.8z"/><path fill="#ef4b4b" d="m1534.6 881.2h-68.8v-68.9h68.8z"/><path fill="#ef4b4b" d="m1534.6 950.1h-68.8v-68.9h68.8z"/><path fill="#ef4b4b" d="m1534.6 1018.9h-68.8v-68.8h68.8z"/><path fill="#ef4b4b" d="m1534.6 1087.8h-68.8v-68.9h68.8z"/><path fill="#ef4b4b" d="m1534.6 1156.6h-68.8v-68.8h68.8z"/><path fill="#ef4b4b" d="m1465.8 1225.5h-68.9v-68.9h68.9z"/><path fill="#ef4b4b" d="m1672.3 674.6h68.9v-68.8h-68.9z"/><path fill="#ef4b4b" d="m1603.5 674.6h68.8v-68.8h-68.8z"/><path fill="#ef4b4b" d="m1741.2 743.5h68.8v-68.9h-68.8z"/><path fill="#ef4b4b" d="m1672.3 743.5h68.9v-68.9h-68.9z"/><path fill="#ef4b4b" d="m1603.5 743.5h68.8v-68.9h-68.8z"/><path fill="#ef4b4b" d="m1741.2 812.3h68.8v-68.8h-68.8z"/><path fill="#ef4b4b" d="m1672.3 812.3h68.9v-68.8h-68.9z"/><path fill="#ef4b4b" d="m1603.5 812.3h68.8v-68.8h-68.8z"/><path fill="#ef4b4b" d="m1741.2 881.2h68.8v-68.9h-68.8z"/><path fill="#ef4b4b" d="m1672.3 881.2h68.9v-68.9h-68.9z"/><path fill="#ef4b4b" d="m1603.5 881.2h68.8v-68.9h-68.8z"/><path fill="#ef4b4b" d="m1741.2 950.1h68.8v-68.9h-68.8z"/><path fill="#ef4b4b" d="m1672.3 950.1h68.9v-68.9h-68.9z"/><path fill="#ef4b4b" d="m1603.5 950.1h68.8v-68.9h-68.8z"/><path fill="#ef4b4b" d="m1672.3 1018.9h68.9v-68.8h-68.9z"/><path fill="#ef4b4b" d="m1603.5 1018.9h68.8v-68.8h-68.8z"/><path fill="#ef4b4b" d="m1603.5 1087.8h68.8v-68.9h-68.8z"/><path fill="#ef4b4b" d="m1534.6 743.5h68.9v-68.9h-68.9z"/><path fill="#ef4b4b" d="m1534.6 812.3h68.9v-68.8h-68.9z"/><path fill="#ef4b4b" d="m1534.6 881.2h68.9v-68.9h-68.9z"/><path fill="#ef4b4b" d="m1534.6 950.1h68.9v-68.9h-68.9z"/><path fill="#ef4b4b" d="m1534.6 1018.9h68.9v-68.8h-68.9z"/><path fill="#ef4b4b" d="m1534.6 1087.8h68.9v-68.9h-68.9z"/><path fill="#ef4b4b" d="m1534.6 1156.6h68.9v-68.8h-68.9z"/><path fill="#ef4b4b" d="m1534.6 1225.5h-68.8v-68.9h68.8z"/><path fill="#972f2f" d="m1741.2 674.6h68.8v-68.8h-68.8z"/><path fill="#972f2f" d="m1810 743.5h68.9v-68.9h-68.9z"/><path fill="#972f2f" d="m1810 812.3h68.9v-68.8h-68.9z"/><path fill="#972f2f" d="m1810 881.2h68.9v-68.9h-68.9z"/><path fill="#972f2f" d="m1810 950.1h68.9v-68.9h-68.9z"/><path fill="#972f2f" d="m1741.2 1018.9h68.8v-68.8h-68.8z"/><path fill="#972f2f" d="m1672.3 1087.8h68.9v-68.9h-68.9z"/><path fill="#972f2f" d="m1603.5 1156.6h68.8v-68.8h-68.8z"/><path fill="#972f2f" d="m1534.6 1225.5h68.9v-68.9h-68.9z"/><path fill="#972f2f" d="m1534.6 1294.3h-68.8v-68.8h68.8z"/><path fill="#231e23" d="m1259.2 605.8h-68.9v-68.9h68.9z"/><path fill="#231e23" d="m1328 605.8h-68.8v-68.9h68.8z"/><path fill="#231e23" d="m1396.9 605.8h-68.9v-68.9h68.9z"/><path fill="#231e23" d="m1465.8 674.6h-68.9v-68.8h68.9z"/><path fill="#231e23" d="m1534.6 743.5h-68.8v-68.9h68.8z"/><path fill="#231e23" d="m1603.5 674.6h-68.9v-68.8h68.9z"/><path fill="#231e23" d="m1672.3 605.8h-68.8v-68.9h68.8z"/><path fill="#231e23" d="m1741.2 605.8h-68.9v-68.9h68.9z"/><path fill="#231e23" d="m1810 605.8h-68.8v-68.9h68.8z"/><path fill="#231e23" d="m1878.9 674.6h-68.9v-68.8h68.9z"/><path fill="#231e23" d="m1947.7 743.5h-68.8v-68.9h68.8z"/><path fill="#231e23" d="m1947.7 812.3h-68.8v-68.8h68.8z"/><path fill="#231e23" d="m1947.7 881.2h-68.8v-68.9h68.8z"/><path fill="#231e23" d="m1947.7 950.1h-68.8v-68.9h68.8z"/><path fill="#231e23" d="m1878.9 1018.9h-68.9v-68.8h68.9z"/><path fill="#231e23" d="m1810 1087.8h-68.8v-68.9h68.8z"/><path fill="#231e23" d="m1741.2 1156.6h-68.9v-68.8h68.9z"/><path fill="#231e23" d="m1672.3 1225.5h-68.8v-68.9h68.8z"/><path fill="#231e23" d="m1603.5 1294.3h-68.9v-68.8h68.9z"/><path fill="#231e23" d="m1534.6 1363.2h-68.8v-68.9h68.8z"/><path fill="#231e23" d="m1052.6 743.5h68.9v-68.9h-68.9z"/><path fill="#231e23" d="m1052.6 812.3h68.9v-68.8h-68.9z"/><path fill="#231e23" d="m1052.6 881.2h68.9v-68.9h-68.9z"/><path fill="#231e23" d="m1052.6 950.1h68.9v-68.9h-68.9z"/><path fill="#231e23" d="m1121.5 1018.9h68.8v-68.8h-68.8z"/><path fill="#231e23" d="m1190.3 1087.8h68.9v-68.9h-68.9z"/><path fill="#231e23" d="m1259.2 1156.6h68.8v-68.8h-68.8z"/><path fill="#231e23" d="m1328 1225.5h68.9v-68.9h-68.9z"/><path fill="#231e23" d="m1396.9 1294.3h68.9v-68.8h-68.9z"/><path fill="#231e23" d="m1190.3 674.6h-68.8v-68.8h68.8z"/><path fill="#ededed" d="m2242.2 743.5h-68.9v-68.9h68.9z"/><path fill="#ededed" d="m2311 743.5h-68.8v-68.9h68.8z"/><path fill="#ededed" d="m2242.2 812.3h-68.9v-68.8h68.9z"/><path fill="#ededed" d="m2242.2 950.1h-68.9v-68.9h68.9z"/><path fill="#ef4b4b" d="m2242.2 674.6h-68.9v-68.8h68.9z"/><path fill="#ef4b4b" d="m2311 674.6h-68.8v-68.8h68.8z"/><path fill="#ef4b4b" d="m2379.9 674.6h-68.9v-68.8h68.9z"/><path fill="#ef4b4b" d="m2379.9 743.5h-68.9v-68.9h68.9z"/><path fill="#ef4b4b" d="m2311 812.3h-68.8v-68.8h68.8z"/><path fill="#ef4b4b" d="m2379.9 812.3h-68.9v-68.8h68.9z"/><path fill="#ef4b4b" d="m2242.2 881.2h-68.9v-68.9h68.9z"/><path fill="#ef4b4b" d="m2311 881.2h-68.8v-68.9h68.8z"/><path fill="#ef4b4b" d="m2379.9 881.2h-68.9v-68.9h68.9z"/><path fill="#ef4b4b" d="m2173.3 743.5h-68.8v-68.9h68.8z"/><path fill="#ef4b4b" d="m2173.3 812.3h-68.8v-68.8h68.8z"/><path fill="#ef4b4b" d="m2173.3 881.2h-68.8v-68.9h68.8z"/><path fill="#ef4b4b" d="m2173.3 950.1h-68.8v-68.9h68.8z"/><path fill="#ef4b4b" d="m2311 950.1h-68.8v-68.9h68.8z"/><path fill="#ef4b4b" d="m2379.9 950.1h-68.9v-68.9h68.9z"/><path fill="#ef4b4b" d="m2242.2 1018.9h-68.9v-68.8h68.9z"/><path fill="#ef4b4b" d="m2311 1018.9h-68.8v-68.8h68.8z"/><path fill="#ef4b4b" d="m2379.9 1018.9h-68.9v-68.8h68.9z"/><path fill="#ef4b4b" d="m2311 1087.8h-68.8v-68.9h68.8z"/><path fill="#ef4b4b" d="m2379.9 1087.8h-68.9v-68.9h68.9z"/><path fill="#ef4b4b" d="m2448.8 743.5h-68.9v-68.9h68.9z"/><path fill="#ef4b4b" d="m2448.8 812.3h-68.9v-68.8h68.9z"/><path fill="#ef4b4b" d="m2448.8 881.2h-68.9v-68.9h68.9z"/><path fill="#ef4b4b" d="m2448.8 950.1h-68.9v-68.9h68.9z"/><path fill="#ef4b4b" d="m2448.8 1018.9h-68.9v-68.8h68.9z"/><path fill="#ef4b4b" d="m2448.8 1087.8h-68.9v-68.9h68.9z"/><path fill="#ef4b4b" d="m2379.9 1156.6h-68.9v-68.8h68.9z"/><path fill="#ef4b4b" d="m2448.8 1156.6h-68.9v-68.8h68.9z"/><path fill="#ef4b4b" d="m2517.6 812.3h-68.8v-68.8h68.8z"/><path fill="#ef4b4b" d="m2517.6 881.2h-68.8v-68.9h68.8z"/><path fill="#ef4b4b" d="m2517.6 950.1h-68.8v-68.9h68.8z"/><path fill="#ef4b4b" d="m2517.6 1018.9h-68.8v-68.8h68.8z"/><path fill="#ef4b4b" d="m2517.6 1087.8h-68.8v-68.9h68.8z"/><path fill="#ef4b4b" d="m2517.6 1156.6h-68.8v-68.8h68.8z"/><path fill="#ef4b4b" d="m2448.8 1225.5h-68.9v-68.9h68.9z"/><path fill="#ef4b4b" d="m2655.3 674.6h68.9v-68.8h-68.9z"/><path fill="#ef4b4b" d="m2586.5 674.6h68.8v-68.8h-68.8z"/><path fill="#ef4b4b" d="m2724.2 743.5h68.8v-68.9h-68.8z"/><path fill="#ef4b4b" d="m2655.3 743.5h68.9v-68.9h-68.9z"/><path fill="#ef4b4b" d="m2586.5 743.5h68.8v-68.9h-68.8z"/><path fill="#ef4b4b" d="m2724.2 812.3h68.8v-68.8h-68.8z"/><path fill="#ef4b4b" d="m2655.3 812.3h68.9v-68.8h-68.9z"/><path fill="#ef4b4b" d="m2586.5 812.3h68.8v-68.8h-68.8z"/><path fill="#ef4b4b" d="m2724.2 881.2h68.8v-68.9h-68.8z"/><path fill="#ef4b4b" d="m2655.3 881.2h68.9v-68.9h-68.9z"/><path fill="#ef4b4b" d="m2586.5 881.2h68.8v-68.9h-68.8z"/><path fill="#ef4b4b" d="m2724.2 950.1h68.8v-68.9h-68.8z"/><path fill="#ef4b4b" d="m2655.3 950.1h68.9v-68.9h-68.9z"/><path fill="#ef4b4b" d="m2586.5 950.1h68.8v-68.9h-68.8z"/><path fill="#ef4b4b" d="m2655.3 1018.9h68.9v-68.8h-68.9z"/><path fill="#ef4b4b" d="m2586.5 1018.9h68.8v-68.8h-68.8z"/><path fill="#ef4b4b" d="m2586.5 1087.8h68.8v-68.9h-68.8z"/><path fill="#ef4b4b" d="m2517.6 743.5h68.9v-68.9h-68.9z"/><path fill="#ef4b4b" d="m2517.6 812.3h68.9v-68.8h-68.9z"/><path fill="#ef4b4b" d="m2517.6 881.2h68.9v-68.9h-68.9z"/><path fill="#ef4b4b" d="m2517.6 950.1h68.9v-68.9h-68.9z"/><path fill="#ef4b4b" d="m2517.6 1018.9h68.9v-68.8h-68.9z"/><path fill="#ef4b4b" d="m2517.6 1087.8h68.9v-68.9h-68.9z"/><path fill="#ef4b4b" d="m2517.6 1156.6h68.9v-68.8h-68.9z"/><path fill="#ef4b4b" d="m2517.6 1225.5h-68.8v-68.9h68.8z"/><path fill="#972f2f" d="m2724.2 674.6h68.8v-68.8h-68.8z"/><path fill="#972f2f" d="m2793 743.5h68.9v-68.9h-68.9z"/><path fill="#972f2f" d="m2793 812.3h68.9v-68.8h-68.9z"/><path fill="#972f2f" d="m2793 881.2h68.9v-68.9h-68.9z"/><path fill="#972f2f" d="m2793 950.1h68.9v-68.9h-68.9z"/><path fill="#972f2f" d="m2724.2 1018.9h68.8v-68.8h-68.8z"/><path fill="#972f2f" d="m2655.3 1087.8h68.9v-68.9h-68.9z"/><path fill="#972f2f" d="m2586.5 1156.6h68.8v-68.8h-68.8z"/><path fill="#972f2f" d="m2517.6 1225.5h68.9v-68.9h-68.9z"/><path fill="#972f2f" d="m2517.6 1294.3h-68.8v-68.8h68.8z"/><path fill="#231e23" d="m2242.2 605.8h-68.9v-68.9h68.9z"/><path fill="#231e23" d="m2311 605.8h-68.8v-68.9h68.8z"/><path fill="#231e23" d="m2379.9 605.8h-68.9v-68.9h68.9z"/><path fill="#231e23" d="m2448.8 674.6h-68.9v-68.8h68.9z"/><path fill="#231e23" d="m2517.6 743.5h-68.8v-68.9h68.8z"/><path fill="#231e23" d="m2586.5 674.6h-68.9v-68.8h68.9z"/><path fill="#231e23" d="m2655.3 605.8h-68.8v-68.9h68.8z"/><path fill="#231e23" d="m2724.2 605.8h-68.9v-68.9h68.9z"/><path fill="#231e23" d="m2793 605.8h-68.8v-68.9h68.8z"/><path fill="#231e23" d="m2861.9 674.6h-68.9v-68.8h68.9z"/><path fill="#231e23" d="m2930.7 743.5h-68.8v-68.9h68.8z"/><path fill="#231e23" d="m2930.7 812.3h-68.8v-68.8h68.8z"/><path fill="#231e23" d="m2930.7 881.2h-68.8v-68.9h68.8z"/><path fill="#231e23" d="m2930.7 950.1h-68.8v-68.9h68.8z"/><path fill="#231e23" d="m2861.9 1018.9h-68.9v-68.8h68.9z"/><path fill="#231e23" d="m2793 1087.8h-68.8v-68.9h68.8z"/><path fill="#231e23" d="m2724.2 1156.6h-68.9v-68.8h68.9z"/><path fill="#231e23" d="m2655.3 1225.5h-68.8v-68.9h68.8z"/><path fill="#231e23" d="m2586.5 1294.3h-68.9v-68.8h68.9z"/><path fill="#231e23" d="m2517.6 1363.2h-68.8v-68.9h68.8z"/><path fill="#231e23" d="m2035.6 743.5h68.9v-68.9h-68.9z"/><path fill="#231e23" d="m2035.6 812.3h68.9v-68.8h-68.9z"/><path fill="#231e23" d="m2035.6 881.2h68.9v-68.9h-68.9z"/><path fill="#231e23" d="m2035.6 950.1h68.9v-68.9h-68.9z"/><path fill="#231e23" d="m2104.5 1018.9h68.8v-68.8h-68.8z"/><path fill="#231e23" d="m2173.3 1087.8h68.9v-68.9h-68.9z"/><path fill="#231e23" d="m2242.2 1156.6h68.8v-68.8h-68.8z"/><path fill="#231e23" d="m2311 1225.5h68.9v-68.9h-68.9z"/><path fill="#231e23" d="m2379.9 1294.3h68.9v-68.8h-68.9z"/><path fill="#231e23" d="m2173.3 674.6h-68.8v-68.8h68.8z"/></svg>